<svg version="1.1" xmlns="http://www.w3.org/2000/svg" xmlns:xlink="http://www.w3.org/1999/xlink" x="0px" y="0px" class="theme_icon" width="30" height="30" viewBox="0 0 1000 1000" enable-background="new 0 0 1000 1000" xml:space="preserve">
<path d="M227,613c45.9,110.9,153.1,182.5,273.1,182.5c25.9,0,51.5-3.5,76.4-10.2c1-0.3,2-0.5,3-0.8c11.3-3.2,22.5-7,33.5-11.5C763.5,710.7,835.3,537.5,773,387c-45.9-110.9-153.1-182.5-273.1-182.5c-38.8,0-76.8,7.6-112.9,22.5c-72.9,30.2-129.7,86.9-159.9,159.8C196.9,459.8,196.9,540.1,227,613z M263.4,401.9c26.2-63.2,75.4-112.4,138.6-138.6c31.3-13,64.2-19.5,97.9-19.5c104,0,197,62.1,236.8,158.2c53.9,130.2-7.9,279.9-137.8,334.2c7.5-52,0.8-104.7-19.6-154.2c-52.3-126.3-184-198.9-316.1-179.3C263.2,402.5,263.3,402.2,263.4,401.9z"/><path d="M267.5,221.5c3.5,2.7,7.8,4.1,12.1,4.1c2.5,0,5.1-0.5,7.5-1.5l168.5-69.8c6.5-2.7,11.1-8.7,12-15.7c0.9-7-2.1-14-7.7-18.2L317.1,13.9c-5.6-4.1-12.9-5.1-19.3-2.4c-6.4,2.7-10.9,8.5-11.9,15.3l-25.7,176.3C259.1,210.1,262,217.2,267.5,221.5z"/><path d="M845.6,455.6c2.7,6.5,8.7,11.1,15.7,12c0.8,0.1,1.6,0.2,2.4,0.2c6.2,0,12-2.9,15.7-7.9l106.6-142.8c4.1-5.5,5.1-12.9,2.4-19.3c-2.6-6.4-8.5-10.9-15.3-11.9l-176.3-25.7c-7-1-14,1.8-18.3,7.4c-4.3,5.6-5.4,13.1-2.7,19.6L845.6,455.6z"/><path d="M694.7,990c2.5,0,5.1-0.5,7.5-1.5c6.4-2.7,10.9-8.5,11.9-15.3l25.7-176.3c1-7-1.8-14-7.4-18.3c-5.6-4.3-13.1-5.4-19.6-2.7l-168.5,69.8c-6.5,2.7-11.1,8.7-12,15.7c-0.9,7,2.1,14,7.7,18.2l142.8,106.6C686.4,988.7,690.5,990,694.7,990z"/><path d="M26.8,714.1l176.3,25.7c0.9,0.1,1.9,0.2,2.8,0.2c0,0,0.1,0,0.1,0c10.8,0,19.6-8.8,19.6-19.6c0-3.4-0.9-6.6-2.4-9.4l-69-166.7c-2.7-6.5-8.7-11.1-15.7-12c-7-0.9-14,2.1-18.2,7.7L13.9,682.9c-4.1,5.5-5.1,12.9-2.4,19.3C14.1,708.6,20,713.1,26.8,714.1z"/><path d="M544.5,154.4L713,224.2c2.4,1,5,1.5,7.5,1.5c4.3,0,8.6-1.4,12.1-4.1c5.6-4.3,8.4-11.3,7.4-18.3L714.4,26.9c-1-6.9-5.5-12.7-11.9-15.3c-6.4-2.6-13.7-1.7-19.3,2.4L540.3,120.5c-5.7,4.2-8.6,11.2-7.8,18.2C533.4,145.7,538,151.7,544.5,154.4z"/><path d="M879.5,540.3c-4.2-5.7-11.2-8.6-18.2-7.8c-7,0.9-13,5.4-15.7,12L775.8,713c-2.7,6.5-1.7,14,2.6,19.6c3.7,4.8,9.5,7.6,15.5,7.6c0.9,0,1.9-0.1,2.8-0.2l176.3-25.6c6.8-1,12.7-5.5,15.3-11.9c2.6-6.4,1.7-13.7-2.4-19.3L879.5,540.3z"/><path d="M467.4,861.3c-0.9-7-5.4-13-12-15.7L287,775.8c-6.5-2.7-14-1.7-19.6,2.6c-5.6,4.3-8.4,11.3-7.4,18.3l25.6,176.4c1,6.8,5.5,12.7,11.9,15.3c2.4,1,5,1.5,7.5,1.5c4.2,0,8.3-1.3,11.7-3.9l142.9-106.5C465.4,875.3,468.3,868.3,467.4,861.3z"/><path d="M120.5,459.7c3.7,5,9.6,7.9,15.8,7.9c0.8,0,1.6-0.1,2.4-0.2c7-0.9,13-5.4,15.7-12L224.2,287c2.7-6.5,1.7-14-2.6-19.6c-4.3-5.6-11.3-8.4-18.3-7.4L26.9,285.6c-6.8,1-12.7,5.5-15.3,11.9c-2.6,6.4-1.7,13.7,2.4,19.3L120.5,459.7z"/>
</svg>